<svg width="24" height="24" viewBox="0 0 24 24" fill="none" xmlns="http://www.w3.org/2000/svg">
<path d="M10.6214 5.67807C10.9723 4.23279 13.0277 4.23279 13.3786 5.67807C13.6053 6.6117 14.675 7.05476 15.4954 6.55487C16.7655 5.78104 18.219 7.23446 17.4451 8.50457C16.9452 9.32503 17.3883 10.3947 18.3219 10.6214C19.7672 10.9723 19.7672 13.0277 18.3219 13.3786C17.3883 13.6053 16.9452 14.675 17.4451 15.4954C18.219 16.7655 16.7655 18.219 15.4954 17.4451C14.675 16.9452 13.6053 17.3883 13.3786 18.3219C13.0277 19.7672 10.9723 19.7672 10.6214 18.3219C10.3947 17.3883 9.32503 16.9452 8.50457 17.4451C7.23446 18.219 5.78104 16.7655 6.55487 15.4954C7.05476 14.675 6.6117 13.6053 5.67807 13.3786C4.23279 13.0277 4.23279 10.9723 5.67807 10.6214C6.6117 10.3947 7.05476 9.32503 6.55487 8.50457C5.78104 7.23446 7.23446 5.78104 8.50457 6.55487C9.32503 7.05476 10.3947 6.6117 10.6214 5.67807Z" fill="#30D9BA"/>
<path d="M9.5 12.45L11.0714 14.25L15 9.75" stroke="#202020" stroke-width="0.75" stroke-linecap="round" stroke-linejoin="round"/>
</svg>
