<svg width="24" height="24" viewBox="0 0 24 24" fill="none" xmlns="http://www.w3.org/2000/svg">
<path d="M3.02388 16.4309L6.38721 13.859C6.1949 13.2749 6.09091 12.65 6.09091 12C6.09091 11.35 6.1949 10.7251 6.38721 10.141L3.02388 7.56906C2.36791 8.90272 2 10.4063 2 12C2 13.5937 2.36791 15.0973 3.02388 16.4309Z" fill="#FBBC05"/>
<path d="M6.38725 10.141C7.16325 7.78407 9.3773 6.09091 12 6.09091C13.4091 6.09091 14.6819 6.59091 15.6819 7.40909L18.591 4.5C16.8182 2.95455 14.5455 2 12 2C8.04828 2 4.6505 4.2621 3.02393 7.56906L6.38725 10.141Z" fill="#EA4335"/>
<path d="M12.0001 22C8.04719 22 4.64863 19.7366 3.02258 16.4282L6.38454 13.8507C7.15807 16.212 9.37423 17.9091 12.0001 17.9091C13.2849 17.9091 14.4234 17.6065 15.325 17.0375L18.518 19.5095C16.7701 21.1346 14.4392 22 12.0001 22Z" fill="#34A853"/>
<path d="M12 10.1818H21.3182C21.4545 10.7727 21.5455 11.4091 21.5455 12C21.5455 15.2593 20.3531 17.8032 18.5179 19.5095L15.325 17.0375C16.369 16.3786 17.0953 15.3626 17.3636 14.0455H12V10.1818Z" fill="#4285F4"/>
</svg>
