<svg width="24" height="24" viewBox="0 0 24 24" fill="none" xmlns="http://www.w3.org/2000/svg">
<circle cx="18.5" cy="4.5" r="2.5" stroke="black" stroke-width="1.5"/>
<path d="M14.4 22V21.195C14.4 21.1172 14.4 21.0783 14.3996 21.0413C14.377 18.902 13.3773 16.8905 11.6857 15.5806C11.6565 15.5579 11.6255 15.5345 11.5635 15.4875C11.5235 15.4572 11.5035 15.442 11.4877 15.4296C10.5309 14.674 10.467 13.2455 11.3524 12.4075C11.367 12.3937 11.3857 12.3767 11.4227 12.343L12.4628 11.3975C14.0898 9.9184 13.5945 7.24463 11.5457 6.44638C10.8122 6.16062 9.99522 6.17859 9.27504 6.49631L8.75335 6.72647C8.21393 6.96445 7.94422 7.08344 7.68074 7.21422C7.24267 7.43166 6.81722 7.67366 6.40642 7.93904C6.15935 8.09865 5.91922 8.26965 5.43897 8.61165L4 9.63637" stroke="black" stroke-width="1.5" stroke-linecap="round"/>
<path d="M9 17L8.74064 17.3112C7.32089 19.0149 5.21773 20 3 20" stroke="black" stroke-width="1.5" stroke-linecap="round"/>
<path d="M16 12C17.3131 12.3283 18.6869 12.3283 20 12" stroke="black" stroke-width="1.5" stroke-linecap="round"/>
</svg>
